<?xml version="1.0" standalone="no"?>
<!DOCTYPE svg PUBLIC "-//W3C//DTD SVG 20010904//EN"
 "http://www.w3.org/TR/2001/REC-SVG-20010904/DTD/svg10.dtd">
<svg version="1.0" xmlns="http://www.w3.org/2000/svg"
 width="358.000000pt" height="140.000000pt" viewBox="0 0 358.000000 140.000000"
 preserveAspectRatio="xMidYMid meet">

<g transform="translate(0.000000,140.000000) scale(0.100000,-0.100000)"
fill="#0A2464" stroke="none">
<path d="M210 1030 l0 -140 30 0 30 0 0 60 0 60 65 0 65 0 0 -60 0 -60 30 0
30 0 0 140 0 140 -30 0 c-30 0 -30 -1 -30 -55 l0 -55 -65 0 -65 0 0 55 c0 54
0 55 -30 55 l-30 0 0 -140z"/>
<path d="M535 1087 c46 -71 54 -91 57 -138 3 -53 4 -54 36 -57 l32 -3 0 53 c0
47 7 63 55 138 l55 85 -26 3 c-39 5 -50 -2 -81 -57 -15 -28 -31 -51 -35 -51
-4 0 -22 25 -40 55 -30 51 -35 55 -70 55 l-38 0 55 -83z"/>
<path d="M792 1033 l3 -138 96 -3 c53 -1 108 2 122 7 l27 11 0 130 0 130 -30
0 -30 0 0 -110 0 -110 -65 0 -65 0 0 110 0 110 -30 0 -31 0 3 -137z"/>
<path d="M1100 1030 l0 -140 30 0 30 0 0 115 0 116 63 -3 62 -3 3 -112 3 -113
29 0 30 0 0 123 c0 159 2 157 -143 157 l-107 0 0 -140z"/>
<path d="M1400 1030 l0 -140 103 0 c146 0 147 1 147 140 0 142 2 140 -141 140
l-109 0 0 -140z m188 3 l3 -83 -66 0 -65 0 0 78 c0 43 3 82 7 86 4 4 32 6 63
4 l55 -3 3 -82z"/>
<path d="M1716 1154 c-13 -12 -16 -40 -16 -140 l0 -124 30 0 c29 0 30 2 30 45
l0 45 65 0 65 0 0 -45 c0 -43 1 -45 30 -45 l30 0 0 140 0 140 -109 0 c-86 0
-113 -3 -125 -16z m174 -74 l0 -40 -65 0 -65 0 0 33 c0 19 3 37 7 40 3 4 33 7
65 7 l58 0 0 -40z"/>
<path d="M2010 1029 l0 -140 33 3 32 3 3 138 3 137 -36 0 -35 0 0 -141z"/>
<path d="M851 718 c-11 -24 -49 -108 -85 -187 -37 -79 -64 -146 -62 -148 2 -3
37 14 78 36 l73 40 39 111 c21 61 40 109 42 108 1 -2 -1 -48 -6 -103 -11 -113
-11 -115 63 -115 l47 0 0 73 c0 41 -3 108 -6 150 l-7 77 -79 0 -79 0 -18 -42z"/>
<path d="M1570 695 c-9 -43 -16 -55 -30 -55 -23 0 -25 -4 -34 -52 -6 -34 -5
-38 15 -38 13 0 19 -5 16 -12 -2 -7 -15 -66 -28 -130 -22 -112 -23 -119 -6
-135 14 -14 34 -18 87 -18 37 0 70 2 73 5 3 3 8 24 12 48 6 38 5 42 -14 42
-25 0 -26 9 -2 115 16 73 20 80 43 83 20 2 27 10 32 34 10 49 7 58 -15 58 -19
0 -21 4 -15 38 4 20 9 45 12 55 5 15 -3 17 -65 17 l-70 0 -11 -55z"/>
<path d="M2166 733 c-10 -33 -96 -443 -96 -458 0 -13 24 -15 144 -15 l144 0
11 50 c6 28 11 53 11 55 0 3 -36 5 -80 5 -86 0 -86 -1 -74 59 l7 31 73 0 c40
0 75 4 78 8 3 5 8 28 12 50 l7 42 -72 0 c-76 0 -79 3 -65 57 6 20 13 22 87 25
l82 3 11 53 12 52 -143 0 c-128 0 -144 -2 -149 -17z"/>
<path d="M1843 631 c-53 -24 -88 -76 -107 -161 -39 -162 -5 -220 128 -220 102
1 159 47 191 155 39 129 29 206 -31 231 -47 20 -131 17 -181 -5z m97 -103 c0
-43 -28 -158 -42 -175 -20 -25 -38 -15 -38 23 0 42 27 154 42 172 20 23 38 13
38 -20z"/>
<path d="M2870 628 c-55 -28 -92 -94 -111 -198 -24 -135 19 -188 146 -177 75
6 116 28 144 77 31 56 28 60 -38 60 -55 0 -61 -2 -73 -27 -8 -17 -21 -28 -33
-28 -17 0 -20 6 -17 35 4 60 4 60 105 60 l94 0 7 38 c8 48 8 116 0 137 -19 48
-148 61 -224 23z m105 -69 c4 -5 4 -21 1 -35 -5 -18 -13 -24 -35 -24 -25 0
-28 3 -24 23 11 42 42 62 58 36z"/>
<path d="M3345 638 c-11 -6 -26 -18 -32 -26 -11 -14 -13 -13 -13 6 0 20 -5 22
-64 22 -58 0 -64 -2 -69 -22 -4 -13 -20 -88 -37 -168 -16 -80 -32 -155 -35
-167 -5 -22 -3 -23 64 -23 l70 0 11 58 c39 191 51 212 115 212 32 0 34 2 44
50 6 28 11 55 11 60 0 13 -40 12 -65 -2z"/>
<path d="M1121 493 c-38 -178 -39 -206 -9 -227 31 -22 87 -20 126 4 26 16 32
17 32 5 0 -12 14 -15 64 -15 53 0 66 3 70 18 7 23 76 345 76 355 0 4 -31 7
-68 7 l-69 0 -27 -132 c-28 -134 -37 -158 -62 -158 -20 0 -18 34 11 166 14 64
25 117 25 120 0 2 -31 4 -69 4 l-68 0 -32 -147z"/>
<path d="M2458 450 l3 -190 83 0 82 0 84 183 c46 100 85 185 87 190 2 4 -27 7
-66 7 l-69 0 -37 -112 c-21 -62 -41 -116 -44 -121 -6 -6 0 95 13 196 l4 37
-71 0 -72 0 3 -190z"/>
<path d="M847 406 l-158 -42 -20 -43 c-10 -24 -19 -47 -19 -53 0 -5 30 -8 67
-6 l66 3 15 43 14 42 54 0 54 0 -2 -42 -3 -43 69 -3 69 -3 -6 68 c-4 37 -7 80
-7 96 0 35 0 35 -193 -17z"/>
</g>
</svg>
