<?xml version="1.0" standalone="no"?>
<!DOCTYPE svg PUBLIC "-//W3C//DTD SVG 20010904//EN"
 "http://www.w3.org/TR/2001/REC-SVG-20010904/DTD/svg10.dtd">
<svg version="1.0" xmlns="http://www.w3.org/2000/svg"
 width="458.000000pt" height="677.000000pt" viewBox="0 0 458.000000 677.000000"
 preserveAspectRatio="xMidYMid meet">

<g transform="translate(0.000000,677.000000) scale(0.100000,-0.100000)"
fill="#000000" stroke="none">
<path d="M2400 6280 l0 -110 25 0 25 0 0 110 0 110 -25 0 -25 0 0 -110z"/>
<path d="M2680 6280 l0 -110 25 0 c23 0 25 4 25 45 0 38 3 45 20 45 13 0 20 7
20 20 0 13 -7 20 -20 20 -17 0 -20 7 -20 45 0 41 -2 45 -25 45 l-25 0 0 -110z"/>
<path d="M2212 6357 c-49 -52 -10 -137 63 -137 46 0 85 36 85 80 0 71 -99 109
-148 57z m88 -32 c26 -31 -13 -82 -44 -56 -19 16 -21 57 -3 64 22 9 34 7 47
-8z"/>
<path d="M2490 6350 c0 -17 7 -20 45 -20 32 0 45 -4 45 -14 0 -17 -68 -76 -87
-76 -19 0 -16 -29 3 -37 43 -16 130 64 141 131 l6 36 -77 0 c-69 0 -76 -2 -76
-20z"/>
<path d="M2230 6145 l0 -55 116 0 c114 0 115 0 112 23 -3 21 -8 22 -90 25
l-88 3 0 29 c0 25 -4 30 -25 30 -24 0 -25 -3 -25 -55z"/>
<path d="M2520 6140 l0 -50 110 0 110 0 0 25 c0 25 -1 25 -85 25 -84 0 -85 0
-85 25 0 20 -5 25 -25 25 -23 0 -25 -3 -25 -50z"/>
<path d="M2762 6033 c335 -2 881 -2 1215 0 335 1 61 2 -607 2 -668 0 -942 -1
-608 -2z"/>
<path d="M2210 5820 l0 -70 40 4 c22 2 40 0 40 -5 0 -4 -26 -9 -57 -11 -51 -3
-58 -6 -61 -25 -3 -23 -3 -23 148 -23 151 0 151 0 148 23 -3 19 -10 22 -60 25
-32 2 -58 7 -58 11 0 4 18 7 40 5 l40 -2 0 69 c0 67 -1 69 -25 69 -16 0 -25
-6 -25 -15 0 -12 -13 -15 -60 -15 -47 0 -60 3 -60 15 0 9 -9 15 -25 15 -24 0
-25 -2 -25 -70z m170 -10 c0 -6 -27 -10 -60 -10 -33 0 -60 4 -60 10 0 6 27 10
60 10 33 0 60 -4 60 -10z"/>
<path d="M2545 5882 c-3 -3 -5 -19 -5 -36 -1 -34 -13 -53 -48 -77 -22 -16 -22
-16 -3 -33 18 -16 21 -16 53 12 l33 30 28 -24 c34 -29 43 -30 57 -5 8 16 6 21
-9 26 -28 9 -44 31 -50 73 -5 29 -11 37 -28 38 -13 1 -25 -1 -28 -4z"/>
<path d="M2698 5868 c-2 -17 -11 -24 -30 -26 -20 -2 -28 -9 -28 -22 0 -13 8
-20 28 -22 23 -3 28 -8 32 -43 4 -32 9 -40 25 -40 18 0 20 8 23 88 3 87 3 87
-22 87 -18 0 -25 -6 -28 -22z"/>
<path d="M2990 5740 l0 -150 25 0 25 0 0 150 0 150 -25 0 -25 0 0 -150z"/>
<path d="M2833 5870 c-47 -19 -58 -92 -20 -128 33 -31 96 -30 125 1 37 39 28
98 -19 122 -31 17 -54 18 -86 5z m75 -71 c2 -18 -3 -29 -14 -33 -27 -11 -54 3
-54 28 0 30 9 38 40 34 19 -2 26 -10 28 -29z"/>
<path d="M2586 5710 c-108 -34 -75 -120 46 -120 58 0 95 12 110 34 15 22 8 56
-14 70 -30 19 -105 27 -142 16z m107 -49 c18 -18 -5 -31 -52 -31 -31 0 -53 5
-61 15 -10 12 -10 16 1 19 8 2 21 7 29 10 19 7 72 -2 83 -13z"/>
<path d="M2873 5693 c-92 -4 -112 -13 -93 -43 6 -10 30 -11 104 -5 93 7 96 8
96 31 0 13 -3 23 -7 22 -5 -1 -49 -4 -100 -5z"/>
<path d="M2210 5640 l0 -40 115 0 c108 0 115 1 115 20 0 19 -7 20 -90 20 -83
0 -90 1 -90 20 0 15 -7 20 -25 20 -22 0 -25 -4 -25 -40z"/>
<path d="M2418 5533 c100 -2 264 -2 365 0 100 1 18 2 -183 2 -201 0 -283 -1
-182 -2z"/>
<path d="M3398 5533 c199 -2 525 -2 725 0 199 1 36 2 -363 2 -399 0 -562 -1
-362 -2z"/>
<path d="M2397 5393 c-4 -3 -7 -17 -7 -30 0 -16 -6 -23 -20 -23 -13 0 -20 7
-20 20 0 15 -7 20 -25 20 -16 0 -25 -6 -25 -15 0 -10 -10 -15 -30 -15 -20 0
-30 5 -30 15 0 9 -9 15 -25 15 -24 0 -25 -2 -25 -70 l0 -70 80 0 c79 0 80 0
80 25 0 18 5 25 20 25 16 0 20 -7 20 -30 0 -25 4 -30 25 -30 25 0 25 1 25 85
0 76 -2 85 -18 85 -10 0 -22 -3 -25 -7z m-97 -103 c0 -5 -13 -10 -30 -10 -16
0 -30 5 -30 10 0 6 14 10 30 10 17 0 30 -4 30 -10z"/>
<path d="M2516 5384 c-3 -9 -6 -18 -6 -20 0 -2 25 -4 55 -4 48 0 55 2 55 20 0
17 -7 20 -49 20 -35 0 -51 -4 -55 -16z"/>
<path d="M2696 5392 c-3 -3 -6 -45 -6 -94 0 -88 0 -88 25 -88 l26 0 -3 92 c-3
76 -6 92 -20 94 -9 1 -19 -1 -22 -4z"/>
<path d="M2491 5342 c-6 -2 -11 -12 -11 -23 0 -15 7 -19 33 -19 l32 -1 -27
-23 c-15 -13 -33 -26 -40 -29 -10 -4 -9 -8 4 -22 16 -17 18 -17 52 3 34 20 37
20 65 5 24 -14 31 -15 45 -4 23 19 20 27 -14 41 -37 15 -39 30 -4 30 21 0 25
4 22 23 -3 20 -8 22 -74 22 -40 1 -77 -1 -83 -3z"/>
<path d="M2222 5158 l3 -63 108 -1 107 0 0 63 c0 61 -1 63 -25 63 -14 0 -25
-4 -25 -10 0 -6 -27 -10 -60 -10 -33 0 -60 4 -60 10 0 6 -11 10 -25 10 -25 0
-26 -1 -23 -62z m168 -8 c0 -6 -27 -10 -61 -10 -37 0 -58 4 -54 10 3 6 31 10
61 10 30 0 54 -4 54 -10z"/>
<path d="M2510 5180 c0 -17 8 -19 88 -22 l87 -3 0 -30 c0 -23 5 -31 23 -33 21
-3 22 0 22 52 l0 56 -110 0 c-103 0 -110 -1 -110 -20z"/>
<path d="M2762 5043 c335 -2 881 -2 1215 0 335 1 61 2 -607 2 -668 0 -942 -1
-608 -2z"/>
<path d="M3400 4752 c-25 -25 -30 -38 -30 -78 0 -38 5 -54 27 -76 15 -15 32
-28 38 -28 16 0 45 -33 45 -52 0 -30 -26 -41 -60 -25 -29 15 -30 14 -50 -13
l-21 -29 25 -16 c83 -55 186 -4 186 91 0 40 -25 78 -68 102 -42 23 -55 42 -46
67 7 17 37 20 63 6 14 -8 21 -4 35 21 24 39 12 50 -58 56 -51 4 -57 2 -86 -26z"/>
<path d="M2202 4598 l3 -173 88 -3 88 -3 -3 38 c-3 37 -4 38 -40 38 -20 0 -40
3 -43 7 -4 4 -6 65 -6 137 l2 131 -46 0 -45 0 2 -172z"/>
<path d="M2541 4605 c-22 -90 -41 -169 -41 -175 0 -5 17 -10 39 -10 36 0 39 2
45 35 7 33 9 35 46 35 37 0 39 -2 46 -35 6 -34 8 -35 51 -35 32 0 44 4 40 13
-2 6 -22 85 -43 174 l-39 163 -51 0 -52 0 -41 -165z m119 -47 c0 -5 -14 -8
-31 -8 -24 0 -29 4 -25 18 3 9 8 35 12 57 11 64 17 64 31 0 7 -33 12 -63 13
-67z"/>
<path d="M2866 4743 c3 -16 17 -93 32 -173 l27 -145 42 -3 c48 -4 43 -12 69
133 l18 100 22 -115 c13 -63 23 -116 23 -118 1 -2 20 -2 43 0 l42 3 28 145
c15 80 29 157 32 173 5 26 4 27 -33 27 -44 0 -39 10 -62 -147 -6 -46 -12 -83
-14 -83 -1 0 -10 52 -20 116 l-17 115 -41 -3 -41 -3 -16 -102 c-9 -56 -18
-105 -21 -108 -3 -2 -11 37 -18 88 -18 130 -16 127 -61 127 -38 0 -39 -1 -34
-27z"/>
<path d="M3769 4559 c-15 -28 -14 -86 1 -104 18 -22 67 -19 80 4 16 31 12 86
-8 104 -26 23 -59 21 -73 -4z m56 -50 c0 -24 -5 -35 -17 -37 -14 -3 -18 4 -18
31 0 18 3 37 7 41 15 14 28 -2 28 -35z"/>
<path d="M3930 4510 c0 -56 3 -70 15 -70 9 0 15 9 15 25 0 16 6 25 15 25 8 0
15 7 15 15 0 8 -7 15 -15 15 -8 0 -15 7 -15 15 0 8 7 15 15 15 8 0 15 7 15 15
0 10 -10 15 -30 15 l-30 0 0 -70z"/>
<path d="M1650 4560 c0 -5 7 -10 15 -10 12 0 15 -13 15 -55 0 -42 3 -55 15
-55 12 0 15 13 15 55 0 30 5 55 10 55 6 0 10 5 10 10 0 6 -18 10 -40 10 -22 0
-40 -4 -40 -10z"/>
<path d="M1782 4503 c3 -66 20 -90 26 -38 2 17 10 25 22 25 12 0 20 -8 22 -25
6 -52 23 -28 26 38 2 55 0 67 -13 67 -9 0 -15 -9 -15 -25 0 -18 -5 -25 -20
-25 -15 0 -20 7 -20 25 0 16 -6 25 -15 25 -13 0 -15 -12 -13 -67z"/>
<path d="M1940 4499 l0 -70 33 3 c20 2 32 8 32 18 0 9 -7 14 -17 12 -11 -2
-18 3 -18 13 0 8 7 15 15 15 8 0 15 7 15 15 0 8 -7 15 -15 15 -22 0 -18 17 5
23 33 8 23 27 -15 27 l-35 0 0 -71z"/>
<path d="M2245 4260 l30 -8 -27 -1 c-18 -1 -28 -7 -28 -16 0 -8 5 -15 10 -15
17 0 11 -18 -7 -23 -10 -3 2 -5 27 -5 36 0 40 2 20 8 -24 7 -24 8 -5 16 18 8
17 9 -10 15 l-30 7 28 1 c17 1 27 7 27 16 0 10 -10 15 -32 14 l-33 -1 30 -8z"/>
<path d="M2300 4238 c0 -31 4 -38 20 -38 11 0 20 7 20 15 0 26 19 16 23 -12 2
-16 4 -5 4 22 1 28 -1 42 -4 33 -2 -10 -9 -18 -14 -18 -5 0 -9 8 -9 18 0 14
-2 15 -10 2 -9 -13 -11 -13 -20 0 -7 11 -10 6 -10 -22z m26 -25 c-10 -10 -19
5 -10 18 6 11 8 11 12 0 2 -7 1 -15 -2 -18z"/>
<path d="M2390 4245 c0 -22 4 -25 33 -24 28 2 29 2 7 7 l-25 5 25 8 25 7 -25
2 -25 2 25 8 c24 8 23 8 -7 9 -29 1 -33 -2 -33 -24z"/>
<path d="M2600 4260 c24 -8 24 -8 3 -9 -41 -2 -26 -29 17 -33 38 -3 40 -2 40
24 0 16 -4 28 -9 28 -6 0 -8 -9 -6 -20 3 -17 -1 -20 -28 -19 -24 1 -26 3 -9 6
32 6 28 33 -5 32 l-28 -1 25 -8z"/>
<path d="M3090 4256 c-13 -13 8 -36 27 -29 8 3 19 0 24 -8 6 -10 9 -5 9 16 0
26 -4 30 -25 30 -15 0 -30 -4 -35 -9z m24 -17 c-3 -5 -10 -7 -15 -3 -5 3 -7
10 -3 15 3 5 10 7 15 3 5 -3 7 -10 3 -15z"/>
<path d="M2523 4253 c41 -6 37 -40 -5 -46 -30 -3 -30 -4 7 -5 38 -2 40 -1 40
28 0 28 -2 30 -35 29 -30 -2 -31 -3 -7 -6z"/>
<path d="M2710 4241 c0 -11 4 -22 9 -25 4 -3 6 6 3 19 -5 30 -12 33 -12 6z"/>
<path d="M2934 4245 c-8 -21 3 -48 19 -43 19 7 22 58 2 58 -8 0 -18 -7 -21
-15z m26 -15 c0 -11 -4 -20 -10 -20 -5 0 -10 9 -10 20 0 11 5 20 10 20 6 0 10
-9 10 -20z"/>
<path d="M2993 4225 c0 -22 2 -30 4 -17 2 12 2 30 0 40 -3 9 -5 -1 -4 -23z"/>
<path d="M3014 4230 c-1 -22 2 -27 11 -20 6 5 15 6 20 2 4 -4 3 3 -4 15 -8 16
-8 23 2 26 6 3 3 6 -8 6 -16 1 -20 -6 -21 -29z"/>
<path d="M3061 4244 c0 -11 3 -14 6 -6 3 7 2 16 -1 19 -3 4 -6 -2 -5 -13z"/>
<path d="M3180 4256 c0 -2 8 -10 18 -17 15 -13 16 -12 3 4 -13 16 -21 21 -21
13z"/>
<path d="M3268 4253 c7 -3 16 -2 19 1 4 3 -2 6 -13 5 -11 0 -14 -3 -6 -6z"/>
<path d="M2776 4222 c-3 -5 1 -9 9 -9 8 0 12 4 9 9 -3 4 -7 8 -9 8 -2 0 -6 -4
-9 -8z"/>
<path d="M3257 4209 c3 -11 13 -19 22 -18 12 0 12 2 2 6 -10 4 -10 7 -1 13 8
5 5 9 -8 12 -15 4 -18 1 -15 -13z"/>
<path d="M3061 4204 c0 -11 3 -14 6 -6 3 7 2 16 -1 19 -3 4 -6 -2 -5 -13z"/>
<path d="M3187 4213 c-4 -3 -7 -11 -7 -17 0 -6 5 -4 11 4 8 11 12 12 16 3 2
-7 9 -13 14 -13 6 0 8 4 5 9 -4 5 0 12 6 14 7 3 1 6 -13 6 -14 1 -29 -2 -32
-6z"/>
<path d="M3301 4204 c0 -11 3 -14 6 -6 3 7 2 16 -1 19 -3 4 -6 -2 -5 -13z"/>
<path d="M2590 4198 c0 -4 16 -8 35 -8 19 0 35 2 35 4 0 2 -16 6 -35 8 -19 2
-35 0 -35 -4z"/>
<path d="M2805 4200 c-3 -5 -1 -10 4 -10 6 0 11 5 11 10 0 6 -2 10 -4 10 -3 0
-8 -4 -11 -10z"/>
<path d="M2398 4193 c12 -2 32 -2 45 0 12 2 2 4 -23 4 -25 0 -35 -2 -22 -4z"/>
<path d="M3113 4193 c9 -2 23 -2 30 0 6 3 -1 5 -18 5 -16 0 -22 -2 -12 -5z"/>
<path d="M2207 4023 c-4 -3 -7 -82 -7 -174 l0 -169 25 -6 c47 -12 55 -1 55 76
l0 70 43 0 43 0 -1 -62 c-1 -35 0 -68 2 -73 5 -16 73 -18 74 -3 1 7 3 84 5
170 3 171 0 179 -51 174 -30 -3 -30 -3 -30 -70 l0 -66 -42 0 -43 0 0 70 0 70
-33 0 c-19 0 -37 -3 -40 -7z"/>
<path d="M2587 4023 c-4 -3 -7 -62 -7 -129 0 -153 13 -195 69 -218 27 -10 49
-12 75 -6 81 18 98 63 94 235 l-3 120 -35 0 -35 0 -5 -130 c-3 -71 -9 -136
-13 -142 -14 -22 -47 -15 -57 13 -6 14 -10 76 -10 139 0 94 -3 114 -16 119
-21 8 -49 8 -57 -1z"/>
<path d="M3172 4013 c-5 -10 -17 -54 -27 -98 -24 -114 -29 -118 -49 -39 -39
159 -30 144 -86 144 l-50 0 0 -169 c0 -168 0 -169 23 -173 44 -8 47 -2 48 110
l1 107 25 -105 c14 -58 31 -108 37 -112 6 -4 20 -6 31 -4 16 2 24 22 46 112
l27 109 1 -107 c1 -59 4 -109 9 -111 4 -3 22 -2 40 0 l32 5 0 169 0 169 -34 0
c-19 0 -41 3 -49 6 -9 3 -19 -2 -25 -13z"/>
<path d="M3484 4022 c-10 -6 -84 -286 -87 -329 -2 -14 5 -18 32 -18 33 0 43 9
55 48 5 14 14 18 43 15 33 -3 38 -7 41 -30 2 -16 10 -29 18 -29 70 -6 75 -5
69 21 -3 14 -22 93 -43 175 l-37 150 -40 2 c-23 1 -46 -1 -51 -5z m66 -209 c0
-8 -12 -13 -30 -13 -19 0 -28 4 -25 13 2 6 9 39 16 72 l12 60 13 -60 c7 -33
13 -66 14 -72z"/>
<path d="M3775 4021 c-3 -2 -5 -80 -5 -172 l0 -167 30 -4 c49 -7 53 1 48 100
-3 50 -2 89 2 87 4 -3 22 -45 40 -95 18 -49 36 -90 41 -91 5 -1 20 -1 34 -1
14 0 30 0 35 1 6 1 10 66 10 175 l0 175 -27 -4 c-16 -2 -31 -4 -35 -4 -5 -1
-8 -45 -8 -98 l-1 -98 -38 100 -38 99 -42 1 c-23 0 -44 -1 -46 -4z"/>
<path d="M2207 3274 c-11 -12 -8 -344 3 -345 6 -1 19 -1 30 -1 11 0 25 0 31 1
8 1 9 32 5 104 -7 117 -2 115 44 -14 28 -78 35 -87 61 -93 59 -11 59 -10 59
180 l0 174 -35 0 -35 0 0 -102 -1 -103 -38 100 -39 100 -39 3 c-21 2 -42 0
-46 -4z"/>
<path d="M2615 3268 c-6 -16 -73 -296 -77 -323 -2 -15 3 -20 22 -20 36 -2 58
12 62 37 3 19 9 23 42 23 36 0 40 -3 48 -31 7 -28 11 -31 44 -28 20 1 38 4 40
7 2 2 -14 81 -37 175 l-42 172 -49 0 c-30 0 -50 -5 -53 -12z m74 -195 c1 -18
-4 -23 -24 -23 -29 0 -29 5 -13 86 l12 59 12 -50 c7 -27 13 -60 13 -72z"/>
<path d="M2847 3273 c-4 -3 -7 -19 -7 -35 0 -25 3 -28 35 -28 l34 0 3 -142 3
-141 25 -2 c49 -4 50 -2 50 146 l0 139 30 0 c28 0 30 3 30 35 l0 35 -98 0
c-54 0 -102 -3 -105 -7z"/>
<path d="M3140 3140 c0 -189 17 -222 115 -222 99 0 120 39 120 222 l0 135 -36
3 -37 3 -3 -130 c-3 -108 -7 -133 -22 -148 -13 -14 -21 -15 -35 -7 -14 10 -17
31 -20 148 l-3 136 -39 0 -40 0 0 -140z"/>
<path d="M3492 3103 c3 -167 4 -176 23 -179 47 -8 55 3 55 77 0 38 4 69 9 69
5 0 19 -30 32 -67 12 -38 26 -71 32 -74 5 -4 23 -6 41 -5 36 2 36 6 2 92 l-23
60 23 28 c45 51 23 144 -37 165 -18 6 -61 11 -96 11 l-63 0 2 -177z m126 95
c18 -18 14 -56 -7 -68 -34 -18 -41 -11 -41 35 0 37 3 45 18 45 10 0 23 -5 30
-12z"/>
<path d="M3820 3105 c0 -201 -7 -189 105 -183 l60 4 3 36 c3 34 1 37 -25 36
-70 -1 -73 0 -73 37 0 35 0 35 45 35 45 0 45 0 45 35 0 35 0 35 -46 35 -45 0
-45 0 -42 33 3 31 5 32 48 32 45 1 45 1 48 38 l3 37 -85 0 -86 0 0 -175z"/>
<path d="M154 2631 c5 -8 -11 -11 -51 -11 -110 0 -103 12 -103 -176 0 -90 2
-164 5 -164 3 0 27 11 53 24 79 39 115 48 148 36 44 -17 69 -46 72 -82 2 -18
7 -35 12 -36 6 -2 8 -8 5 -13 -4 -5 0 -6 8 -3 25 9 31 -16 33 -127 3 -123 15
-109 -116 -133 -41 -8 -92 -21 -112 -30 -35 -15 -38 -19 -38 -59 0 -23 6 -68
14 -99 22 -94 18 -109 -36 -138 -27 -14 -48 -30 -48 -37 0 -19 131 -70 150
-58 5 3 10 3 10 -2 0 -9 -109 -43 -140 -43 -11 0 -20 -7 -20 -15 0 -12 14 -15
69 -15 62 0 70 -2 76 -21 9 -26 -4 -35 -62 -44 -45 -7 -59 -24 -20 -26 12 -1
29 -3 37 -4 8 -1 25 -3 37 -4 13 0 22 -4 22 -8 -4 -24 4 -33 26 -33 21 0 25
-5 25 -28 0 -36 -5 -40 -35 -34 -16 3 -25 11 -25 24 0 16 -3 17 -20 8 -11 -6
-20 -17 -20 -24 0 -18 -27 -29 -33 -13 -2 8 -9 6 -21 -6 -10 -9 -26 -17 -37
-17 -17 0 -20 -6 -17 -42 3 -39 6 -43 56 -67 44 -22 52 -30 51 -51 -2 -44 0
-49 32 -66 24 -12 37 -13 55 -5 29 13 58 -11 50 -43 -3 -12 2 -30 10 -40 8
-11 14 -28 14 -38 0 -10 5 -18 10 -18 6 0 10 5 10 11 0 5 4 8 9 4 11 -6 -28
-85 -42 -85 -6 0 -24 -16 -41 -36 -21 -23 -42 -37 -66 -41 -52 -8 -108 -40
-124 -72 -16 -29 -30 -146 -21 -161 11 -18 32 1 27 26 -3 17 0 24 12 24 9 0
16 7 16 16 0 8 4 13 9 9 5 -3 12 4 16 15 7 23 14 24 37 6 25 -18 22 -29 -4
-23 -22 6 -22 5 -5 -8 25 -18 14 -59 -14 -52 -10 3 -19 1 -19 -5 0 -5 9 -12
20 -15 11 -3 20 -10 20 -15 0 -5 -5 -6 -12 -2 -7 4 -8 3 -4 -5 4 -7 3 -33 -4
-59 -10 -41 -17 -50 -53 -67 l-42 -20 -3 -100 c-2 -66 1 -108 10 -123 10 -19
9 -27 -1 -44 -7 -11 -10 -23 -7 -26 3 -3 6 0 6 6 0 8 7 9 26 2 53 -20 58 -17
89 65 5 11 9 25 10 30 2 16 16 68 22 85 4 8 7 20 8 25 6 38 30 76 51 81 15 4
24 13 24 25 0 10 5 19 10 19 6 0 10 -9 10 -21 0 -11 4 -17 10 -14 6 3 10 1 10
-4 0 -6 5 -11 11 -11 8 0 10 17 6 53 -3 34 -1 58 8 70 13 19 35 23 35 7 0 -5
-4 -10 -10 -10 -5 0 -10 -5 -10 -11 0 -5 4 -7 10 -4 23 15 -25 -273 -59 -350
l-20 -45 715 0 716 0 -6 27 c-3 16 -8 55 -12 88 -10 96 -38 241 -63 334 -7 23
-10 50 -7 58 4 9 2 11 -6 7 -8 -5 -9 -2 -5 9 3 9 2 19 -4 23 -7 4 -6 10 1 19
21 25 -6 24 -34 -1 l-27 -26 7 26 c3 14 1 41 -6 61 -15 45 -7 56 14 18 14 -25
15 -26 16 -6 0 12 -8 41 -19 65 -13 31 -16 50 -9 61 5 10 5 17 0 17 -11 0 -28
39 -28 65 1 11 -7 28 -18 37 -16 16 -17 18 -3 24 15 5 14 8 -1 23 -9 10 -26
23 -37 29 -11 6 -14 12 -7 12 25 0 1 20 -38 30 -22 6 -86 33 -142 59 -57 27
-172 72 -255 100 -189 64 -215 75 -206 86 5 4 2 5 -4 1 -12 -7 -74 21 -81 36
-2 4 -10 4 -18 1 -7 -3 -17 2 -20 11 -3 9 -10 13 -15 10 -5 -3 -13 6 -19 20
-5 14 -16 26 -24 26 -7 0 -20 10 -29 22 -8 13 -29 39 -47 58 -27 30 -31 40
-26 70 3 19 7 67 8 105 1 68 1 69 7 19 l6 -51 30 13 c17 7 23 13 15 14 -12 0
-13 2 -1 9 9 6 11 18 6 40 -5 23 -3 32 9 37 9 3 16 13 16 21 0 8 3 12 8 10 4
-3 7 23 6 56 -1 34 4 71 9 82 6 11 10 34 9 51 -1 18 5 37 12 43 10 9 11 23 4
63 -5 28 -7 63 -4 77 4 14 9 37 11 50 3 12 0 29 -6 37 -7 8 -9 17 -6 20 3 3
-1 21 -9 40 -8 19 -12 40 -8 47 4 7 4 9 -1 5 -4 -4 -19 15 -33 43 -23 47 -155
189 -174 189 -5 0 -22 9 -38 20 -17 11 -43 29 -58 39 -16 11 -50 22 -76 25
-26 2 -59 12 -73 21 -14 10 -22 12 -19 6z m223 -673 c-3 -8 -6 -5 -6 6 -1 11
2 17 5 13 3 -3 4 -12 1 -19z m33 -14 c0 -8 5 -14 10 -14 6 0 10 -7 10 -16 0
-8 5 -12 10 -9 6 3 10 -2 10 -12 0 -11 4 -23 9 -28 10 -10 30 -226 26 -275 -3
-44 -16 -90 -26 -90 -5 0 -9 19 -9 43 1 105 -7 179 -21 188 -21 13 -29 11 -29
-8 0 -15 2 -16 10 -3 8 13 10 12 11 -5 1 -11 2 -27 1 -35 0 -8 5 -18 11 -22 7
-5 -5 -7 -25 -6 -21 1 -39 0 -40 -2 -32 -51 -35 -75 -12 -101 14 -16 14 -21
-4 -61 -10 -24 -26 -49 -35 -57 -15 -12 -17 -10 -17 22 0 20 5 39 10 42 16 10
12 81 -5 95 -12 10 -21 10 -41 1 -31 -14 -54 0 -54 31 0 11 -22 47 -50 80 -28
33 -50 67 -50 76 0 31 12 62 24 62 6 0 24 7 39 15 26 13 31 13 50 0 26 -18 57
-20 57 -3 0 6 8 3 19 -8 10 -10 18 -23 17 -29 0 -5 21 -12 47 -15 27 -3 53
-13 58 -21 6 -10 9 -3 9 23 0 20 5 40 10 43 14 9 12 25 -2 23 -7 -2 -14 7 -16
19 -2 12 -10 27 -18 33 -16 14 -20 55 -4 45 6 -3 10 -13 10 -21z m-103 -36
c-7 -4 -30 -7 -52 -7 -36 0 -38 1 -17 11 12 6 22 14 22 19 0 4 13 2 30 -4 20
-7 25 -14 17 -19z m53 -18 c0 -5 -2 -10 -4 -10 -3 0 -8 5 -11 10 -3 6 -1 10 4
10 6 0 11 -4 11 -10z m-75 -310 c3 -5 1 -10 -4 -10 -6 0 -11 5 -11 10 0 6 2
10 4 10 3 0 8 -4 11 -10z m15 -40 c0 -5 -2 -10 -4 -10 -3 0 -8 5 -11 10 -3 6
-1 10 4 10 6 0 11 -4 11 -10z m650 -519 c-6 -12 -18 -21 -27 -21 -13 0 -12 5
7 25 27 29 37 27 20 -4z m-58 -51 c17 0 15 -4 -13 -23 -19 -13 -36 -22 -38
-21 -2 2 2 25 10 51 12 42 14 44 17 21 2 -21 9 -28 24 -28z m-82 -61 c0 -12 8
-14 33 -11 31 4 31 3 12 -12 -11 -8 -25 -16 -31 -16 -6 0 -16 -10 -22 -22 -9
-19 -11 -12 -11 42 -1 45 2 60 9 50 5 -8 10 -22 10 -31z m255 -59 c-4 -6 -2
-17 5 -24 8 -11 6 -14 -14 -12 -16 1 -21 5 -15 12 5 6 4 15 -3 22 -9 9 -7 12
11 12 13 0 19 -4 16 -10z m34 -22 c-1 -18 -3 -25 -6 -15 -2 9 -9 17 -14 17 -5
0 -4 7 3 15 18 20 18 19 17 -17z m112 20 c0 -7 2 -24 3 -36 3 -27 -18 -40 -38
-23 -7 6 -22 8 -32 5 -16 -6 -17 -5 -6 7 6 7 12 22 12 34 1 15 4 12 15 -12 15
-36 22 -41 22 -18 0 8 -4 15 -9 15 -4 0 -3 9 4 20 14 23 28 26 29 8z m89 -28
c0 -30 -4 -40 -16 -40 -12 0 -15 7 -12 25 6 31 2 31 -23 3 l-20 -23 11 24 c10
19 9 26 -1 33 -10 7 -8 8 9 5 12 -3 22 -1 22 4 0 5 7 9 15 9 11 0 15 -11 15
-40z m-530 -6 c0 -10 7 -10 38 2 l37 15 -32 -30 c-18 -17 -33 -38 -33 -48 0
-34 -23 5 -30 51 -6 38 -4 44 7 35 7 -6 13 -17 13 -25z m325 -34 c-7 -11 -48
-7 -52 6 -2 7 8 9 27 6 16 -2 28 -8 25 -12z m-298 -49 l27 24 -22 -38 c-12
-21 -22 -48 -22 -60 0 -21 0 -21 -14 -2 -7 11 -21 38 -30 60 l-17 39 26 -24
25 -23 27 24z m394 -6 c5 14 7 4 7 -30 0 -28 -3 -39 -6 -25 -4 23 -5 24 -13 5
-5 -14 -7 -7 -7 25 0 25 3 36 6 25 l5 -20 8 20z m99 -5 c0 -10 -8 -24 -17 -29
-17 -10 -17 -10 0 -11 10 0 17 -7 16 -17 0 -11 -3 -13 -6 -5 -2 6 -19 12 -36
13 -27 0 -29 2 -12 9 11 5 16 9 10 10 -5 1 -2 5 8 9 29 11 25 25 -8 32 -29 6
-29 7 8 8 30 1 37 -2 37 -19z m-231 -27 c-2 -31 -3 -33 -6 -10 -2 15 -10 27
-16 27 -10 0 10 19 21 20 1 0 1 -17 1 -37z m59 -1 c3 -30 1 -33 -20 -30 -17 2
-23 10 -24 28 -2 32 4 42 24 38 11 -2 18 -15 20 -36z m42 19 c0 -10 -7 -25
-17 -32 -15 -13 -15 -12 -4 10 11 19 11 25 0 32 -11 7 -10 9 4 9 10 0 17 -8
17 -19z m-350 -91 c-7 -17 -9 -42 -5 -57 6 -26 3 -24 -35 17 -22 25 -36 46
-30 48 6 2 17 -1 25 -8 11 -9 17 -5 31 22 20 39 32 21 14 -22z m435 -10 c8
-13 -20 -24 -41 -16 -20 8 -9 26 16 26 10 0 22 -5 25 -10z m98 -9 c2 -10 1
-25 -4 -32 -6 -10 -9 -4 -9 19 0 36 5 42 13 13z m-283 -20 c0 -24 0 -24 -15
-5 -8 11 -15 14 -15 7 0 -21 -50 -16 -50 5 0 13 9 17 40 17 36 0 40 -3 40 -24z
m90 10 c0 -26 -73 -25 -78 2 -3 14 4 17 37 17 33 0 41 -4 41 -19z m160 -1 c-6
-11 -15 -20 -20 -20 -24 0 6 -29 33 -33 31 -4 31 -4 -4 -5 -29 -2 -38 2 -42
18 -3 10 2 25 10 32 13 11 13 13 -4 19 -14 6 -12 8 10 8 25 1 27 -1 17 -19z
m-1175 -8 c-3 -3 -11 0 -18 7 -9 10 -8 11 6 5 10 -3 15 -9 12 -12z m75 8 c0
-6 -7 -25 -16 -41 -8 -17 -14 -40 -12 -52 3 -18 6 -16 28 16 20 30 31 37 58
37 17 0 32 -3 32 -6 0 -9 -110 -127 -148 -159 -18 -15 -35 -25 -38 -23 -6 7
18 98 25 93 3 -1 7 24 7 56 1 33 7 66 14 74 14 17 50 20 50 5z m1047 -13 c3
-4 -2 -7 -13 -8 -10 0 -13 -3 -6 -6 25 -10 12 -33 -18 -33 -30 0 -43 23 -17
33 7 3 4 6 -6 6 -10 1 -16 4 -14 9 6 9 64 8 74 -1z m-413 -42 c-2 -32 3 -51
16 -67 l19 -23 2 30 1 30 10 -35 c5 -19 14 -43 19 -52 10 -20 -4 -23 -60 -12
-36 8 -32 24 7 24 l27 1 -27 22 c-15 12 -44 35 -64 50 l-38 28 37 -5 c33 -4
37 -2 37 18 0 19 7 36 15 36 2 0 1 -20 -1 -45z m656 10 c0 -21 3 -23 37 -19
l37 5 -37 -28 c-20 -15 -49 -37 -64 -48 l-28 -20 35 -6 35 -6 -28 -11 c-16 -7
-39 -12 -53 -12 -20 0 -23 3 -15 18 5 9 14 33 19 52 l10 35 1 -30 2 -30 19 23
c14 17 18 34 15 67 -2 27 0 43 6 40 5 -4 9 -17 9 -30z m-460 -8 c18 -3 15 -5
-12 -6 -29 -1 -38 3 -38 15 0 12 3 14 13 6 6 -5 23 -12 37 -15z m110 8 c0 -8
-5 -15 -11 -15 -5 0 -8 4 -4 9 3 5 -9 12 -27 14 -33 4 -33 4 5 5 27 2 37 -2
37 -13z m-1090 -435 c0 -5 -5 -10 -11 -10 -5 0 -7 5 -4 10 3 6 8 10 11 10 2 0
4 -4 4 -10z m-29 -83 c-10 -9 -11 -8 -5 6 3 10 9 15 12 12 3 -3 0 -11 -7 -18z"/>
<path d="M1085 710 c3 -5 10 -10 16 -10 5 0 9 5 9 10 0 6 -7 10 -16 10 -8 0
-12 -4 -9 -10z"/>
<path d="M1080 680 c0 -5 7 -10 15 -10 8 0 15 5 15 10 0 6 -7 10 -15 10 -8 0
-15 -4 -15 -10z"/>
<path d="M1085 590 c4 -6 11 -8 16 -5 14 9 11 15 -7 15 -8 0 -12 -5 -9 -10z"/>
<path d="M265 530 c3 -5 8 -10 11 -10 2 0 4 5 4 10 0 6 -5 10 -11 10 -5 0 -7
-4 -4 -10z"/>
<path d="M983 2435 c0 -8 4 -12 9 -9 5 3 6 10 3 15 -9 13 -12 11 -12 -6z"/>
<path d="M1291 2447 c2 -1 13 -9 24 -17 19 -14 19 -14 6 3 -7 9 -18 17 -24 17
-6 0 -8 -1 -6 -3z"/>
<path d="M1640 2430 c-8 -5 -10 -10 -5 -10 6 0 17 5 25 10 8 5 11 10 5 10 -5
0 -17 -5 -25 -10z"/>
<path d="M3197 2419 c7 -7 15 -10 18 -7 3 3 -2 9 -12 12 -14 6 -15 5 -6 -5z"/>
<path d="M1725 2400 c-3 -6 1 -7 9 -4 18 7 21 14 7 14 -6 0 -13 -4 -16 -10z"/>
<path d="M746 2383 c-4 -9 -1 -21 5 -27 9 -8 10 -7 4 3 -4 7 -2 16 5 21 8 5 8
10 2 14 -5 3 -13 -2 -16 -11z"/>
<path d="M2735 2361 c-3 -5 -1 -12 5 -16 6 -4 8 -10 5 -15 -3 -5 0 -12 6 -16
8 -4 9 -3 5 4 -4 8 0 12 11 13 14 0 13 2 -5 10 -13 5 -20 13 -17 19 3 5 4 10
1 10 -3 0 -7 -4 -11 -9z"/>
<path d="M3440 2365 c0 -7 30 -13 34 -7 3 4 -4 9 -15 9 -10 1 -19 0 -19 -2z"/>
<path d="M926 2335 c-11 -8 -16 -15 -10 -15 5 0 18 7 28 15 11 8 16 15 10 15
-5 0 -18 -7 -28 -15z"/>
<path d="M3490 2340 c-9 -6 -10 -10 -3 -10 6 0 15 5 18 10 8 12 4 12 -15 0z"/>
<path d="M751 2314 c0 -11 3 -14 6 -6 3 7 2 16 -1 19 -3 4 -6 -2 -5 -13z"/>
<path d="M3606 2302 c-3 -5 1 -9 9 -9 8 0 12 4 9 9 -3 4 -7 8 -9 8 -2 0 -6 -4
-9 -8z"/>
<path d="M2192 2231 c-11 -7 -10 -9 3 -14 9 -4 14 -3 10 2 -3 5 1 12 7 14 7 3
9 6 3 6 -5 0 -16 -3 -23 -8z"/>
<path d="M2655 2230 c-3 -6 1 -7 9 -4 18 7 21 14 7 14 -6 0 -13 -4 -16 -10z"/>
<path d="M2575 2220 c-3 -6 1 -7 9 -4 18 7 21 14 7 14 -6 0 -13 -4 -16 -10z"/>
<path d="M1625 2180 c-16 -7 -17 -9 -3 -9 9 -1 20 4 23 9 7 11 7 11 -20 0z"/>
<path d="M3136 2117 c3 -10 9 -15 12 -12 3 3 0 11 -7 18 -10 9 -11 8 -5 -6z"/>
<path d="M2446 2087 c3 -10 9 -15 12 -12 3 3 0 11 -7 18 -10 9 -11 8 -5 -6z"/>
<path d="M2020 2036 c0 -2 8 -10 18 -17 15 -13 16 -12 3 4 -13 16 -21 21 -21
13z"/>
<path d="M2250 2036 c0 -2 8 -10 18 -17 15 -13 16 -12 3 4 -13 16 -21 21 -21
13z"/>
<path d="M1545 2020 c-3 -5 -1 -10 4 -10 6 0 11 5 11 10 0 6 -2 10 -4 10 -3 0
-8 -4 -11 -10z"/>
<path d="M1929 2017 c6 -8 7 -18 3 -22 -4 -5 -1 -5 6 -1 10 6 10 11 1 22 -6 8
-14 14 -16 14 -3 0 0 -6 6 -13z"/>
<path d="M1451 2006 c-15 -18 5 -34 22 -17 9 9 7 10 -8 5 -18 -7 -18 -6 -6 9
7 9 11 17 8 17 -2 0 -10 -6 -16 -14z"/>
<path d="M1797 1979 c7 -7 15 -10 18 -7 3 3 -2 9 -12 12 -14 6 -15 5 -6 -5z"/>
<path d="M1931 1714 c0 -11 3 -14 6 -6 3 7 2 16 -1 19 -3 4 -6 -2 -5 -13z"/>
<path d="M2180 1726 c0 -2 8 -10 18 -17 15 -13 16 -12 3 4 -13 16 -21 21 -21
13z"/>
<path d="M2405 1721 c-3 -5 -2 -12 3 -15 5 -3 9 1 9 9 0 17 -3 19 -12 6z"/>
<path d="M2830 1720 c-9 -6 -10 -10 -3 -10 6 0 15 5 18 10 8 12 4 12 -15 0z"/>
<path d="M3715 1720 c3 -4 14 -10 25 -13 11 -3 18 -2 15 3 -3 4 -14 10 -25 13
-11 3 -18 2 -15 -3z"/>
<path d="M1535 1710 c-3 -6 1 -7 9 -4 18 7 21 14 7 14 -6 0 -13 -4 -16 -10z"/>
<path d="M2330 1716 c0 -3 9 -10 20 -16 11 -6 20 -8 20 -6 0 3 -9 10 -20 16
-11 6 -20 8 -20 6z"/>
<path d="M2855 1711 c-3 -5 -2 -12 3 -15 5 -3 9 1 9 9 0 17 -3 19 -12 6z"/>
<path d="M1246 1697 c3 -10 9 -15 12 -12 3 3 0 11 -7 18 -10 9 -11 8 -5 -6z"/>
<path d="M2166 1702 c-3 -5 1 -9 9 -9 8 0 12 4 9 9 -3 4 -7 8 -9 8 -2 0 -6 -4
-9 -8z"/>
<path d="M2258 1673 c6 -2 9 -10 6 -15 -4 -7 -2 -8 5 -4 13 9 5 26 -12 25 -9
0 -8 -2 1 -6z"/>
<path d="M2979 1643 c-13 -16 -12 -17 4 -4 16 13 21 21 13 21 -2 0 -10 -8 -17
-17z"/>
<path d="M3306 1642 c-3 -5 1 -9 9 -9 8 0 12 4 9 9 -3 4 -7 8 -9 8 -2 0 -6 -4
-9 -8z"/>
<path d="M2445 1631 c-3 -5 -2 -12 3 -15 5 -3 9 1 9 9 0 17 -3 19 -12 6z"/>
<path d="M1566 1617 c3 -10 9 -15 12 -12 3 3 0 11 -7 18 -10 9 -11 8 -5 -6z"/>
<path d="M2630 1615 c-7 -9 -11 -17 -9 -20 3 -2 10 5 17 15 14 24 10 26 -8 5z"/>
<path d="M3026 1617 c3 -10 9 -15 12 -12 3 3 0 11 -7 18 -10 9 -11 8 -5 -6z"/>
<path d="M2236 1598 c3 -5 10 -6 15 -3 13 9 11 12 -6 12 -8 0 -12 -4 -9 -9z"/>
<path d="M2385 1599 c-11 -16 -1 -19 13 -3 7 8 8 14 3 14 -5 0 -13 -5 -16 -11z"/>
<path d="M2290 1591 c0 -6 4 -13 10 -16 6 -3 7 1 4 9 -7 18 -14 21 -14 7z"/>
<path d="M3180 1590 c-9 -6 -10 -10 -3 -10 6 0 15 5 18 10 8 12 4 12 -15 0z"/>
<path d="M3635 1590 c-3 -6 1 -7 9 -4 18 7 21 14 7 14 -6 0 -13 -4 -16 -10z"/>
<path d="M636 1581 c-3 -4 6 -7 19 -7 14 0 22 2 19 5 -8 8 -34 10 -38 2z"/>
<path d="M780 1579 c0 -5 5 -7 10 -4 6 3 10 8 10 11 0 2 -4 4 -10 4 -5 0 -10
-5 -10 -11z"/>
<path d="M1006 1582 c-3 -5 1 -9 9 -9 8 0 12 4 9 9 -3 4 -7 8 -9 8 -2 0 -6 -4
-9 -8z"/>
<path d="M1470 1586 c0 -2 7 -7 16 -10 8 -3 12 -2 9 4 -6 10 -25 14 -25 6z"/>
<path d="M3420 1586 c0 -2 7 -7 16 -10 8 -3 12 -2 9 4 -6 10 -25 14 -25 6z"/>
<path d="M1185 1480 c-3 -6 1 -7 9 -4 18 7 21 14 7 14 -6 0 -13 -4 -16 -10z"/>
<path d="M2519 1473 c-13 -16 -12 -17 4 -4 9 7 17 15 17 17 0 8 -8 3 -21 -13z"/>
<path d="M2736 1477 c3 -10 9 -15 12 -12 3 3 0 11 -7 18 -10 9 -11 8 -5 -6z"/>
<path d="M3270 1480 c-8 -5 -12 -12 -9 -15 4 -3 12 1 19 10 14 17 11 19 -10 5z"/>
<path d="M3395 1480 c-3 -6 1 -7 9 -4 18 7 21 14 7 14 -6 0 -13 -4 -16 -10z"/>
<path d="M3540 1470 c6 -11 13 -20 16 -20 2 0 0 9 -6 20 -6 11 -13 20 -16 20
-2 0 0 -9 6 -20z"/>
<path d="M3566 1477 c3 -10 9 -15 12 -12 3 3 0 11 -7 18 -10 9 -11 8 -5 -6z"/>
<path d="M2583 1470 c-13 -5 -23 -11 -23 -14 0 -7 40 6 46 15 6 10 6 10 -23
-1z"/>
<path d="M3106 1458 c3 -5 10 -6 15 -3 13 9 11 12 -6 12 -8 0 -12 -4 -9 -9z"/>
<path d="M3400 1460 c-9 -6 -10 -10 -3 -10 6 0 15 5 18 10 8 12 4 12 -15 0z"/>
<path d="M2442 1404 c-7 -8 -8 -14 -3 -14 10 0 25 19 20 25 -2 1 -10 -3 -17
-11z"/>
<path d="M3326 1403 c-6 -14 -5 -15 5 -6 7 7 10 15 7 18 -3 3 -9 -2 -12 -12z"/>
<path d="M586 1397 c3 -10 9 -15 12 -12 3 3 0 11 -7 18 -10 9 -11 8 -5 -6z"/>
<path d="M1596 1402 c-3 -5 1 -9 9 -9 8 0 12 4 9 9 -3 4 -7 8 -9 8 -2 0 -6 -4
-9 -8z"/>
<path d="M2783 1395 c0 -8 4 -12 9 -9 5 3 6 10 3 15 -9 13 -12 11 -12 -6z"/>
<path d="M2735 1380 c-3 -6 1 -7 9 -4 18 7 21 14 7 14 -6 0 -13 -4 -16 -10z"/>
<path d="M1740 1361 c0 -6 4 -13 10 -16 6 -3 7 1 4 9 -7 18 -14 21 -14 7z"/>
<path d="M3106 1362 c-3 -5 1 -9 9 -9 8 0 12 4 9 9 -3 4 -7 8 -9 8 -2 0 -6 -4
-9 -8z"/>
<path d="M1887 1346 c-4 -10 -1 -13 8 -9 8 3 12 9 9 14 -7 12 -11 11 -17 -5z"/>
<path d="M1554 1336 c1 -8 5 -18 8 -22 4 -3 5 1 4 10 -1 8 -5 18 -8 22 -4 3
-5 -1 -4 -10z"/>
<path d="M2006 1341 c-4 -5 -2 -12 3 -15 5 -4 12 -2 15 3 4 5 2 12 -3 15 -5 4
-12 2 -15 -3z"/>
<path d="M2628 1313 c7 -3 16 -2 19 1 4 3 -2 6 -13 5 -11 0 -14 -3 -6 -6z"/>
<path d="M1916 1291 c-13 -14 -14 -21 -5 -27 7 -4 10 -3 5 4 -3 6 4 18 16 26
12 9 18 16 12 16 -6 0 -19 -9 -28 -19z"/>
<path d="M2802 1234 c-7 -8 -8 -14 -3 -14 10 0 25 19 20 25 -2 1 -10 -3 -17
-11z"/>
<path d="M2728 1228 c5 -5 16 -8 23 -6 8 3 3 7 -10 11 -17 4 -21 3 -13 -5z"/>
<path d="M1903 1185 c0 -8 4 -12 9 -9 5 3 6 10 3 15 -9 13 -12 11 -12 -6z"/>
<path d="M3255 1189 c-4 -6 -5 -12 -2 -15 2 -3 7 2 10 11 7 17 1 20 -8 4z"/>
<path d="M3006 1182 c-3 -5 1 -9 9 -9 8 0 12 4 9 9 -3 4 -7 8 -9 8 -2 0 -6 -4
-9 -8z"/>
<path d="M2687 1053 c5 -12 3 -14 -8 -8 -8 5 -11 4 -6 0 4 -5 14 -10 22 -11
12 -2 12 2 5 17 -13 23 -22 25 -13 2z"/>
<path d="M3810 1051 c0 -6 4 -13 10 -16 6 -3 7 1 4 9 -7 18 -14 21 -14 7z"/>
<path d="M1420 1041 c0 -6 4 -13 10 -16 6 -3 7 1 4 9 -7 18 -14 21 -14 7z"/>
<path d="M3125 1040 c-3 -6 1 -7 9 -4 18 7 21 14 7 14 -6 0 -13 -4 -16 -10z"/>
<path d="M3159 1033 c-13 -16 -12 -17 4 -4 16 13 21 21 13 21 -2 0 -10 -8 -17
-17z"/>
<path d="M3160 956 c0 -2 7 -7 16 -10 8 -3 12 -2 9 4 -6 10 -25 14 -25 6z"/>
<path d="M2000 926 c0 -2 8 -10 18 -17 15 -13 16 -12 3 4 -13 16 -21 21 -21
13z"/>
<path d="M2730 926 c0 -2 8 -10 18 -17 15 -13 16 -12 3 4 -13 16 -21 21 -21
13z"/>
<path d="M4200 916 c7 -7 13 -7 20 0 6 6 3 10 -10 10 -13 0 -16 -4 -10 -10z"/>
<path d="M2500 911 c0 -6 4 -13 10 -16 6 -3 7 1 4 9 -7 18 -14 21 -14 7z"/>
<path d="M2112 816 c7 -8 15 -12 17 -11 5 6 -10 25 -20 25 -5 0 -4 -6 3 -14z"/>
<path d="M2167 817 c-3 -8 3 -14 16 -15 12 0 17 2 12 6 -6 4 -13 11 -16 15 -4
4 -9 2 -12 -6z"/>
<path d="M2744 822 c3 -5 0 -13 -6 -15 -9 -4 -10 -6 -1 -6 17 -1 25 16 12 25
-7 4 -9 3 -5 -4z"/>
<path d="M3864 822 c3 -5 0 -13 -6 -15 -9 -4 -10 -6 -1 -6 17 -1 25 16 12 25
-7 4 -9 3 -5 -4z"/>
<path d="M2400 810 c8 -5 20 -10 25 -10 6 0 3 5 -5 10 -8 5 -19 10 -25 10 -5
0 -3 -5 5 -10z"/>
<path d="M3670 810 c-9 -6 -10 -10 -3 -10 6 0 15 5 18 10 8 12 4 12 -15 0z"/>
<path d="M2686 782 c-3 -5 1 -9 9 -9 8 0 12 4 9 9 -3 4 -7 8 -9 8 -2 0 -6 -4
-9 -8z"/>
<path d="M2366 763 c-6 -14 -5 -15 5 -6 7 7 10 15 7 18 -3 3 -9 -2 -12 -12z"/>
<path d="M2975 771 c-3 -5 -2 -12 3 -15 5 -3 9 1 9 9 0 17 -3 19 -12 6z"/>
<path d="M1869 703 c-12 -16 -12 -17 2 -6 9 7 20 9 24 5 5 -4 5 -1 1 6 -9 16
-11 15 -27 -5z"/>
<path d="M3049 683 c-13 -16 -12 -17 4 -4 16 13 21 21 13 21 -2 0 -10 -8 -17
-17z"/>
<path d="M3686 683 c-6 -14 -5 -15 5 -6 7 7 10 15 7 18 -3 3 -9 -2 -12 -12z"/>
<path d="M1685 680 c-3 -5 -1 -10 4 -10 6 0 11 5 11 10 0 6 -2 10 -4 10 -3 0
-8 -4 -11 -10z"/>
<path d="M2626 677 c3 -10 9 -15 12 -12 3 3 0 11 -7 18 -10 9 -11 8 -5 -6z"/>
<path d="M1949 643 c-13 -16 -12 -17 4 -4 16 13 21 21 13 21 -2 0 -10 -8 -17
-17z"/>
<path d="M3096 603 c-6 -14 -5 -15 5 -6 7 7 10 15 7 18 -3 3 -9 -2 -12 -12z"/>
<path d="M1804 599 c-4 -7 -3 -9 4 -5 5 3 13 0 15 -6 4 -9 6 -10 6 -1 1 17
-16 25 -25 12z"/>
<path d="M2976 587 c3 -10 9 -15 12 -12 3 3 0 11 -7 18 -10 9 -11 8 -5 -6z"/>
<path d="M3441 567 c-13 -21 -12 -21 5 -5 10 10 16 20 13 22 -3 3 -11 -5 -18
-17z"/>
<path d="M3959 563 l-24 -28 28 24 c15 14 27 26 27 28 0 8 -8 1 -31 -24z"/>
<path d="M3105 569 c-4 -6 -5 -12 -2 -15 2 -3 7 2 10 11 7 17 1 20 -8 4z"/>
<path d="M2736 557 c3 -10 9 -15 12 -12 3 3 0 11 -7 18 -10 9 -11 8 -5 -6z"/>
<path d="M3376 558 c3 -5 10 -6 15 -3 13 9 11 12 -6 12 -8 0 -12 -4 -9 -9z"/>
<path d="M3545 560 c-3 -6 1 -7 9 -4 18 7 21 14 7 14 -6 0 -13 -4 -16 -10z"/>
<path d="M2166 463 c-6 -14 -5 -15 5 -6 7 7 10 15 7 18 -3 3 -9 -2 -12 -12z"/>
<path d="M2759 453 c-13 -16 -12 -17 4 -4 9 7 17 15 17 17 0 8 -8 3 -21 -13z"/>
<path d="M1800 450 c0 -5 5 -10 11 -10 5 0 7 5 4 10 -3 6 -8 10 -11 10 -2 0
-4 -4 -4 -10z"/>
<path d="M0 430 c0 -5 5 -10 11 -10 5 0 7 5 4 10 -3 6 -8 10 -11 10 -2 0 -4
-4 -4 -10z"/>
<path d="M1930 350 c0 -5 5 -10 11 -10 5 0 7 5 4 10 -3 6 -8 10 -11 10 -2 0
-4 -4 -4 -10z"/>
<path d="M240 270 c0 -5 5 -10 11 -10 5 0 7 5 4 10 -3 6 -8 10 -11 10 -2 0 -4
-4 -4 -10z"/>
<path d="M215 230 c-3 -5 1 -10 9 -10 9 0 16 5 16 10 0 6 -4 10 -9 10 -6 0
-13 -4 -16 -10z"/>
<path d="M238 203 c-30 -5 -34 -14 -18 -44 9 -16 7 -19 -12 -19 -14 0 -18 -3
-11 -8 8 -5 2 -25 -22 -70 l-33 -62 38 0 c37 0 38 1 60 59 17 46 19 64 11 79
-14 26 -14 45 -1 37 6 -3 10 0 10 9 0 8 6 17 13 19 14 6 5 6 -35 0z"/>
<path d="M291 194 c0 -11 3 -14 6 -6 3 7 2 16 -1 19 -3 4 -6 -2 -5 -13z"/>
<path d="M265 157 c-4 -10 -5 -21 -1 -24 10 -10 18 4 13 24 -4 17 -4 17 -12 0z"/>
</g>
</svg>
